# xmcd
# Copyright (C) 1995-1998 Ti Kan
#
# Track frame offsets:
#       150
#       13375
#       25848
#       37233
#       49098
#       61025
#       72508
#       83998
#       97110
#       111968
#       123863
#       135338
#       147285
#       159243
#       172393
#       183795
#       195948
#       208120
#       219048
#       230060
#       241480
#
# Disc length: 3388 seconds
#
# Revision: 0
# Processed by: cddbd v1.5.2PL0 Copyright (c) Steve Scherf et al.
# Submitted via: CD-Import v1.0
#
DISCID=2d0d3a15
DTITLE=Sam and Dave - Best Of
DYEAR=1987
DGENRE=
TTITLE0=A Place Nobody Can Find
TTITLE1=Good Night Baby
TTITLE2=I Take What I Want
TTITLE3=Sweet Home
TTITLE4=You Don't Know Like I Know
TTITLE5=Hold On, I'm Coming
TTITLE6=Said I Wasn't Gonna Tell Nobody
TTITLE7=You Got Me Hummin'
TTITLE8=When Something Is Wrong With My Baby
TTITLE9=Small Portion Of Your Love
TTITLE10=Soothe Me
TTITLE11=Soul Man
TTITLE12=May I Baby
TTITLE13=I Thank You
TTITLE14=Wrap It Up
TTITLE15=Still Is The Night
TTITLE16=You Don't Know What You Mean To Me
TTITLE17=This Is Your World
TTITLE18=Can't You Find Another Way (Of Doing It)
TTITLE19=Soul Sister, Brown Sugar
TTITLE20=Come On In
EXTD=
EXTT0=
EXTT1=
EXTT2=
EXTT3=
EXTT4=
EXTT5=
EXTT6=
EXTT7=
EXTT8=
EXTT9=
EXTT10=
EXTT11=
EXTT12=
EXTT13=
EXTT14=
EXTT15=
EXTT16=
EXTT17=
EXTT18=
EXTT19=
EXTT20=
PLAYORDER=
